<svg width="196" height="20" viewBox="0 0 196 20" fill="none" xmlns="http://www.w3.org/2000/svg">
<path d="M11.411 5.12311C11.3037 4.04356 10.827 3.18497 9.98106 2.54735C9.1351 1.90972 8.07134 1.59091 6.78977 1.59091C5.88699 1.59091 5.09154 1.74558 4.40341 2.05492C3.72159 2.36427 3.18497 2.79356 2.79356 3.3428C2.40846 3.88573 2.21591 4.50442 2.21591 5.19886C2.21591 5.71023 2.32639 6.15846 2.54735 6.54356C2.76831 6.92866 3.06502 7.2601 3.4375 7.53788C3.81629 7.80934 4.23295 8.04293 4.6875 8.23864C5.14836 8.43434 5.61237 8.59849 6.07954 8.73106L8.125 9.31818C8.74368 9.48864 9.36237 9.70644 9.98106 9.97159C10.5997 10.2367 11.1648 10.5713 11.6761 10.9754C12.1938 11.3731 12.6073 11.8624 12.9167 12.4432C13.2323 13.0177 13.3901 13.709 13.3901 14.517C13.3901 15.5524 13.1218 16.4836 12.5852 17.3106C12.0486 18.1376 11.2784 18.7942 10.2746 19.2803C9.27083 19.7601 8.06818 20 6.66666 20C5.34722 20 4.20139 19.7822 3.22917 19.3466C2.25694 18.9047 1.49306 18.2955 0.9375 17.5189C0.381944 16.7424 0.0694444 15.8428 0 14.8201H1.81818C1.88131 15.584 2.13384 16.2311 2.57576 16.7614C3.01768 17.2917 3.59217 17.6957 4.29924 17.9735C5.00631 18.2449 5.79545 18.3807 6.66666 18.3807C7.63257 18.3807 8.49116 18.2197 9.24242 17.8977C10 17.5694 10.5934 17.1149 11.0227 16.5341C11.4583 15.947 11.6761 15.2652 11.6761 14.4886C11.6761 13.8321 11.5057 13.2828 11.1648 12.8409C10.8239 12.3927 10.3472 12.017 9.73485 11.714C9.12879 11.411 8.42487 11.1427 7.6231 10.9091L5.30303 10.2273C3.78156 9.77273 2.60101 9.14457 1.76136 8.3428C0.921717 7.54104 0.501894 6.51831 0.501894 5.27462C0.501894 4.23295 0.779671 3.31755 1.33523 2.52841C1.8971 1.73296 2.65467 1.11427 3.60795 0.672348C4.56755 0.224116 5.64394 0 6.83712 0C8.04293 0 9.10985 0.22096 10.0379 0.66288C10.9659 1.1048 11.7014 1.71402 12.2443 2.49053C12.7936 3.26073 13.0871 4.13826 13.125 5.12311H11.411Z" fill="white"/>
<path d="M17.1466 19.6686H15.2905L22.3454 0.274622H24.2394L31.2943 19.6686H29.4382L23.3587 2.57576H23.2261L17.1466 19.6686ZM18.4818 12.2348H28.103V13.8258H18.4818V12.2348Z" fill="white"/>
<path d="M39.7667 19.6686H34.0848V0.274622H40.1076C41.9573 0.274622 43.5388 0.659723 44.8519 1.42992C46.1713 2.20013 47.1814 3.30492 47.8822 4.74432C48.5829 6.18371 48.9333 7.91035 48.9333 9.92424C48.9333 11.9571 48.5735 13.7027 47.8538 15.161C47.1404 16.613 46.0987 17.7273 44.7288 18.5038C43.3651 19.2803 41.7111 19.6686 39.7667 19.6686ZM35.8557 18.0777H39.6625C41.3292 18.0777 42.7244 17.7494 43.8481 17.0928C44.9718 16.4362 45.8146 15.4987 46.3765 14.2803C46.9384 13.0619 47.2193 11.6098 47.2193 9.92424C47.213 8.25126 46.9352 6.81187 46.386 5.60606C45.843 4.40025 45.035 3.47538 43.9617 2.83144C42.8948 2.1875 41.5754 1.86553 40.0034 1.86553H35.8557V18.0777Z" fill="white"/>
<path d="M52.6921 0.274622H54.7376L61.7736 17.1686H61.944L68.98 0.274622H71.0254V19.6686H69.3588V4.01515H69.2073L62.6637 19.6686H61.0539L54.5103 4.01515H54.3588V19.6686H52.6921V0.274622Z" fill="white"/>
<path d="M75.6768 19.6686H73.8207L80.8756 0.274622H82.7696L89.8245 19.6686H87.9684L81.8889 2.57576H81.7563L75.6768 19.6686ZM77.012 12.2348H86.6332V13.8258H77.012V12.2348Z" fill="white"/>
<path d="M107.719 0.274622V19.6686H105.996L94.5374 3.42803H94.3859V19.6686H92.615V0.274622H94.329L105.825 16.5341H105.977V0.274622H107.719Z" fill="white"/>
<path d="M126.484 5.85232C126.408 5.08844 126.083 4.495 125.509 4.07202C124.934 3.64904 124.154 3.43755 123.17 3.43755C122.5 3.43755 121.935 3.53225 121.475 3.72164C121.014 3.90472 120.66 4.16041 120.414 4.48869C120.174 4.81697 120.054 5.18945 120.054 5.60611C120.041 5.95334 120.114 6.25637 120.272 6.5152C120.436 6.77404 120.66 6.99816 120.944 7.18755C121.228 7.37063 121.557 7.53162 121.929 7.67051C122.302 7.80308 122.699 7.91672 123.122 8.01142L124.865 8.42808C125.711 8.61748 126.487 8.87 127.194 9.18566C127.901 9.50131 128.514 9.88957 129.031 10.3504C129.549 10.8113 129.95 11.3542 130.234 11.9792C130.524 12.6042 130.673 13.3208 130.679 14.1288C130.673 15.3157 130.37 16.3447 129.77 17.216C129.177 18.0809 128.318 18.7532 127.194 19.233C126.077 19.7065 124.729 19.9432 123.151 19.9432C121.585 19.9432 120.221 19.7033 119.06 19.2235C117.904 18.7437 117.002 18.0335 116.351 17.0929C115.708 16.1459 115.37 14.9748 115.338 13.5796H119.306C119.35 14.2299 119.536 14.7728 119.865 15.2084C120.199 15.6377 120.644 15.9628 121.2 16.1838C121.762 16.3984 122.396 16.5057 123.103 16.5057C123.798 16.5057 124.401 16.4047 124.912 16.2027C125.43 16.0007 125.831 15.7197 126.115 15.3599C126.399 15.0001 126.541 14.5865 126.541 14.1194C126.541 13.6838 126.411 13.3176 126.153 13.0209C125.9 12.7242 125.528 12.4716 125.035 12.2633C124.549 12.055 123.952 11.8656 123.245 11.6951L121.134 11.1648C119.499 10.7671 118.208 10.1453 117.261 9.2993C116.314 8.45334 115.843 7.31381 115.85 5.88073C115.843 4.70649 116.156 3.68061 116.787 2.80308C117.425 1.92556 118.299 1.24058 119.41 0.748158C120.521 0.255734 121.784 0.00952148 123.198 0.00952148C124.637 0.00952148 125.894 0.255734 126.967 0.748158C128.047 1.24058 128.886 1.92556 129.486 2.80308C130.086 3.68061 130.395 4.69702 130.414 5.85232H126.484Z" fill="#909090"/>
<path d="M136.871 19.6686H132.477L139.172 0.274673H144.456L151.141 19.6686H146.747L141.89 4.70649H141.738L136.871 19.6686ZM136.596 12.0455H146.975V15.2463H136.596V12.0455Z" fill="#909090"/>
<path d="M154.009 19.6686V0.274673H158.109V8.82581H158.365L165.344 0.274673H170.259L163.062 8.95838L170.344 19.6686H165.439L160.126 11.6951L158.109 14.1572V19.6686H154.009Z" fill="#909090"/>
<path d="M177.028 0.274673V19.6686H172.928V0.274673H177.028Z" fill="#909090"/>
<path d="M180.935 19.6686V0.274673H188.7C190.127 0.274673 191.317 0.486163 192.27 0.909143C193.224 1.33212 193.94 1.91924 194.42 2.67051C194.9 3.41546 195.14 4.27404 195.14 5.24626C195.14 6.00384 194.988 6.66988 194.685 7.24437C194.382 7.81255 193.965 8.27972 193.435 8.64588C192.911 9.00573 192.311 9.26141 191.636 9.41293V9.60232C192.374 9.63389 193.066 9.84222 193.71 10.2273C194.36 10.6124 194.887 11.1522 195.291 11.8466C195.695 12.5348 195.897 13.3555 195.897 14.3088C195.897 15.3378 195.641 16.2564 195.13 17.0644C194.625 17.8662 193.877 18.5007 192.886 18.9679C191.895 19.435 190.673 19.6686 189.221 19.6686H180.935ZM185.035 16.3163H188.378C189.521 16.3163 190.354 16.0985 190.878 15.6629C191.402 15.221 191.664 14.6339 191.664 13.9016C191.664 13.365 191.535 12.8915 191.276 12.4811C191.017 12.0708 190.648 11.7488 190.168 11.5152C189.695 11.2816 189.13 11.1648 188.473 11.1648H185.035V16.3163ZM185.035 8.3902H188.075C188.637 8.3902 189.136 8.29235 189.571 8.09664C190.013 7.89462 190.361 7.61053 190.613 7.24437C190.872 6.87821 191.001 6.43945 191.001 5.92808C191.001 5.22732 190.752 4.6623 190.253 4.23301C189.761 3.80371 189.06 3.58907 188.151 3.58907H185.035V8.3902Z" fill="#909090"/>
</svg>
