<svg width="24" height="24" viewBox="0 0 24 24" fill="none" xmlns="http://www.w3.org/2000/svg">
<g opacity="0.8">
<rect width="24" height="24" rx="2" fill="#121120"/>
<path d="M4.13915 8.12244C4.11927 7.92253 4.031 7.76353 3.87435 7.64545C3.71769 7.52737 3.52069 7.46833 3.28337 7.46833C3.11618 7.46833 2.96888 7.49698 2.84145 7.55426C2.71518 7.61155 2.61581 7.69105 2.54333 7.79276C2.47201 7.8933 2.43635 8.00787 2.43635 8.13647C2.43635 8.23117 2.45681 8.31418 2.49773 8.38549C2.53865 8.45681 2.5936 8.51818 2.66257 8.56962C2.73272 8.6199 2.80988 8.66315 2.89406 8.69939C2.9794 8.73564 3.06533 8.76603 3.15184 8.79058L3.53063 8.89931C3.6452 8.93088 3.75977 8.97121 3.87435 9.02031C3.98892 9.06941 4.09355 9.13138 4.18825 9.2062C4.28411 9.27985 4.36069 9.37046 4.41798 9.47801C4.47643 9.5844 4.50566 9.71242 4.50566 9.86206C4.50566 10.0538 4.45597 10.2262 4.3566 10.3794C4.25722 10.5325 4.11459 10.6541 3.92871 10.7441C3.74282 10.833 3.52011 10.8774 3.26057 10.8774C3.01623 10.8774 2.80404 10.8371 2.62399 10.7564C2.44395 10.6746 2.30249 10.5618 2.19961 10.418C2.09673 10.2742 2.03886 10.1076 2.026 9.91818H2.3627C2.37439 10.0596 2.42116 10.1795 2.50299 10.2777C2.58483 10.3759 2.69122 10.4507 2.82216 10.5021C2.9531 10.5524 3.09923 10.5776 3.26057 10.5776C3.43944 10.5776 3.59844 10.5477 3.73756 10.4881C3.87785 10.4273 3.98775 10.3431 4.06725 10.2356C4.14791 10.1269 4.18825 10.0006 4.18825 9.8568C4.18825 9.73522 4.15668 9.6335 4.09355 9.55167C4.03042 9.46866 3.94215 9.3991 3.82875 9.34298C3.71652 9.28687 3.58616 9.23718 3.43769 9.19392L3.00804 9.06766C2.72629 8.98349 2.50767 8.86716 2.35218 8.71868C2.19669 8.57021 2.11894 8.38082 2.11894 8.1505C2.11894 7.9576 2.17038 7.78808 2.27327 7.64195C2.37731 7.49464 2.51761 7.38007 2.69414 7.29823C2.87184 7.21522 3.07117 7.17372 3.29213 7.17372C3.51543 7.17372 3.71301 7.21464 3.88487 7.29648C4.05672 7.37831 4.19292 7.49113 4.29347 7.63493C4.39518 7.77756 4.44954 7.94007 4.45656 8.12244H4.13915Z" fill="white"/>
<path d="M5.20129 10.816H4.85758L6.16405 7.22458H6.51478L7.82124 10.816H7.47753L6.35169 7.65071H6.32714L5.20129 10.816ZM5.44856 9.43943H7.23026V9.73405H5.44856V9.43943Z" fill="white"/>
<path d="M9.3902 10.816H8.33801V7.22458H9.45333C9.79587 7.22458 10.0887 7.29589 10.3319 7.43852C10.5762 7.58115 10.7633 7.78574 10.8931 8.0523C11.0228 8.31885 11.0877 8.6386 11.0877 9.01154C11.0877 9.38799 11.0211 9.71125 10.8878 9.98131C10.7557 10.2502 10.5628 10.4565 10.3091 10.6003C10.0566 10.7441 9.75028 10.816 9.3902 10.816ZM8.66594 10.5214H9.37091C9.67955 10.5214 9.93792 10.4606 10.146 10.3391C10.3541 10.2175 10.5102 10.0439 10.6142 9.81822C10.7183 9.59259 10.7703 9.32369 10.7703 9.01154C10.7691 8.70173 10.7177 8.43518 10.616 8.21188C10.5155 7.98858 10.3658 7.81731 10.1671 7.69806C9.96948 7.57881 9.72514 7.51919 9.43404 7.51919H8.66594V10.5214Z" fill="white"/>
<path d="M11.7838 7.22458H12.1626L13.4655 10.3531H13.4971L14.8001 7.22458H15.1789V10.816H14.8702V7.91727H14.8422L13.6304 10.816H13.3323L12.1205 7.91727H12.0924V10.816H11.7838V7.22458Z" fill="white"/>
<path d="M16.0402 10.816H15.6965L17.003 7.22458H17.3537L18.6602 10.816H18.3165L17.1906 7.65071H17.1661L16.0402 10.816ZM16.2875 9.43943H18.0692V9.73405H16.2875V9.43943Z" fill="white"/>
<path d="M21.974 7.22458V10.816H21.6548L19.5329 7.80854H19.5049V10.816H19.1769V7.22458H19.4943L21.6233 10.2356H21.6513V7.22458H21.974Z" fill="white"/>
<path d="M4.76712 13.328C4.74831 13.1383 4.6676 12.991 4.52497 12.886C4.38234 12.781 4.18878 12.7285 3.94428 12.7285C3.77814 12.7285 3.63786 12.752 3.52345 12.799C3.40903 12.8445 3.32126 12.9079 3.26013 12.9894C3.20057 13.0709 3.1708 13.1634 3.1708 13.2669C3.16766 13.3531 3.18569 13.4283 3.22487 13.4926C3.26562 13.5568 3.32126 13.6125 3.39179 13.6595C3.46232 13.7049 3.54382 13.7449 3.63629 13.7794C3.72876 13.8123 3.82751 13.8405 3.93252 13.864L4.3651 13.9675C4.57513 14.0145 4.76791 14.0772 4.94345 14.1555C5.11899 14.2339 5.27102 14.3303 5.39954 14.4447C5.52806 14.5591 5.62759 14.6939 5.69812 14.8491C5.77021 15.0043 5.80705 15.1821 5.80861 15.3828C5.80705 15.6774 5.73181 15.9329 5.58292 16.1492C5.43559 16.3639 5.22243 16.5308 4.94345 16.65C4.66603 16.7675 4.3314 16.8263 3.93957 16.8263C3.55087 16.8263 3.21233 16.7667 2.92394 16.6476C2.63712 16.5285 2.41299 16.3522 2.25156 16.1186C2.09169 15.8835 2.00784 15.5928 2 15.2464H2.98507C2.99604 15.4078 3.04227 15.5426 3.12378 15.6508C3.20684 15.7574 3.31734 15.8381 3.45527 15.8929C3.59476 15.9462 3.75227 15.9729 3.92782 15.9729C4.10022 15.9729 4.2499 15.9478 4.37686 15.8976C4.50538 15.8475 4.60491 15.7777 4.67544 15.6884C4.74597 15.5991 4.78123 15.4964 4.78123 15.3804C4.78123 15.2723 4.7491 15.1814 4.68484 15.1077C4.62214 15.034 4.52967 14.9713 4.40742 14.9196C4.28674 14.8679 4.13862 14.8209 3.96308 14.7786L3.43881 14.6469C3.03287 14.5482 2.71235 14.3938 2.47725 14.1838C2.24215 13.9737 2.12539 13.6908 2.12695 13.335C2.12539 13.0435 2.20297 12.7888 2.3597 12.571C2.518 12.3531 2.73508 12.1831 3.01093 12.0608C3.28678 11.9386 3.60025 11.8774 3.95133 11.8774C4.30868 11.8774 4.62058 11.9386 4.88702 12.0608C5.15504 12.1831 5.36349 12.3531 5.51239 12.571C5.66128 12.7888 5.73808 13.0412 5.74278 13.328H4.76712Z" fill="white"/>
<path d="M7.34574 16.7581H6.25488L7.91704 11.9433H9.22889L10.8887 16.7581H9.79783L8.59177 13.0435H8.55415L7.34574 16.7581ZM7.27757 14.8655H9.85426V15.6602H7.27757V14.8655Z" fill="white"/>
<path d="M11.6006 16.7581V11.9433H12.6186V14.0662H12.6821L14.4148 11.9433H15.6349L13.8482 14.0991L15.6561 16.7581H14.4383L13.1194 14.7786L12.6186 15.3898V16.7581H11.6006Z" fill="white"/>
<path d="M17.3155 11.9433V16.7581H16.2975V11.9433H17.3155Z" fill="white"/>
<path d="M18.2854 16.7581V11.9433H20.2132C20.5675 11.9433 20.8629 11.9958 21.0996 12.1008C21.3362 12.2058 21.5141 12.3515 21.6332 12.5381C21.7524 12.723 21.8119 12.9362 21.8119 13.1775C21.8119 13.3656 21.7743 13.531 21.6991 13.6736C21.6238 13.8146 21.5204 13.9306 21.3887 14.0215C21.2586 14.1109 21.1098 14.1744 20.942 14.212V14.259C21.1254 14.2668 21.2971 14.3185 21.4569 14.4142C21.6184 14.5098 21.7492 14.6438 21.8495 14.8162C21.9498 14.987 22 15.1908 22 15.4274C22 15.6829 21.9365 15.911 21.8096 16.1116C21.6842 16.3106 21.4985 16.4681 21.2524 16.5841C21.0063 16.7001 20.703 16.7581 20.3425 16.7581H18.2854ZM19.3034 15.9258H20.1333C20.417 15.9258 20.6239 15.8718 20.754 15.7636C20.8841 15.6539 20.9491 15.5082 20.9491 15.3263C20.9491 15.1931 20.917 15.0756 20.8527 14.9737C20.7885 14.8718 20.6968 14.7919 20.5776 14.7339C20.4601 14.6759 20.3198 14.6469 20.1568 14.6469H19.3034V15.9258ZM19.3034 13.9581H20.0581C20.1976 13.9581 20.3214 13.9338 20.4295 13.8852C20.5392 13.835 20.6255 13.7645 20.6881 13.6736C20.7524 13.5827 20.7845 13.4738 20.7845 13.3468C20.7845 13.1728 20.7226 13.0325 20.5988 12.926C20.4766 12.8194 20.3026 12.7661 20.0769 12.7661H19.3034V13.9581Z" fill="white"/>
</g>
</svg>
